<?xml version="1.0" encoding="UTF-8" standalone="no"?>
<!DOCTYPE svg PUBLIC "-//W3C//DTD SVG 1.1//EN"
 "http://www.w3.org/Graphics/SVG/1.1/DTD/svg11.dtd">
<!-- Generated by graphviz version 7.0.4 (20221203.1631)
 -->
<!-- Title: snakemake_dag Pages: 1 -->
<svg width="719pt" height="1484pt"
 viewBox="0.00 0.00 719.08 1484.00" xmlns="http://www.w3.org/2000/svg" xmlns:xlink="http://www.w3.org/1999/xlink">
<g id="graph0" class="graph" transform="scale(1 1) rotate(0) translate(4 1480)">
<title>snakemake_dag</title>
<polygon fill="white" stroke="none" points="-4,4 -4,-1480 715.08,-1480 715.08,4 -4,4"/>
<!-- 0 -->
<g id="node1" class="node">
<title>0</title>
<path fill="none" stroke="#70d856" stroke-width="2" d="M417.08,-36C417.08,-36 387.08,-36 387.08,-36 381.08,-36 375.08,-30 375.08,-24 375.08,-24 375.08,-12 375.08,-12 375.08,-6 381.08,0 387.08,0 387.08,0 417.08,0 417.08,0 423.08,0 429.08,-6 429.08,-12 429.08,-12 429.08,-24 429.08,-24 429.08,-30 423.08,-36 417.08,-36"/>
<text text-anchor="middle" x="402.08" y="-15.5" font-family="sans" font-size="10.00">all</text>
</g>
<!-- 1 -->
<g id="node2" class="node">
<title>1</title>
<path fill="none" stroke="#56d86b" stroke-width="2" d="M578.08,-396C578.08,-396 518.08,-396 518.08,-396 512.08,-396 506.08,-390 506.08,-384 506.08,-384 506.08,-372 506.08,-372 506.08,-366 512.08,-360 518.08,-360 518.08,-360 578.08,-360 578.08,-360 584.08,-360 590.08,-366 590.08,-372 590.08,-372 590.08,-384 590.08,-384 590.08,-390 584.08,-396 578.08,-396"/>
<text text-anchor="middle" x="548.08" y="-375.5" font-family="sans" font-size="10.00">on_target_stats</text>
</g>
<!-- 1&#45;&gt;0 -->
<g id="edge2" class="edge">
<title>1&#45;&gt;0</title>
<path fill="none" stroke="grey" stroke-width="2" d="M548.08,-359.07C548.08,-332.13 548.08,-279.62 548.08,-235 548.08,-235 548.08,-235 548.08,-161 548.08,-101.37 484.72,-58.68 441.48,-36.49"/>
<polygon fill="grey" stroke="grey" stroke-width="2" points="443.12,-33.39 432.6,-32.11 440.02,-39.67 443.12,-33.39"/>
</g>
<!-- 2 -->
<g id="node3" class="node">
<title>2</title>
<path fill="none" stroke="#97d856" stroke-width="2" d="M597.58,-468C597.58,-468 480.58,-468 480.58,-468 474.58,-468 468.58,-462 468.58,-456 468.58,-456 468.58,-444 468.58,-444 468.58,-438 474.58,-432 480.58,-432 480.58,-432 597.58,-432 597.58,-432 603.58,-432 609.58,-438 609.58,-444 609.58,-444 609.58,-456 609.58,-456 609.58,-462 603.58,-468 597.58,-468"/>
<text text-anchor="middle" x="539.08" y="-447.5" font-family="sans" font-size="10.00">merge_viral_alignment_stats</text>
</g>
<!-- 2&#45;&gt;1 -->
<g id="edge8" class="edge">
<title>2&#45;&gt;1</title>
<path fill="none" stroke="grey" stroke-width="2" d="M541.35,-431.34C542.2,-424.75 543.18,-417.08 544.14,-409.67"/>
<polygon fill="grey" stroke="grey" stroke-width="2" points="547.59,-410.27 545.39,-399.9 540.64,-409.38 547.59,-410.27"/>
</g>
<!-- 3 -->
<g id="node4" class="node">
<title>3</title>
<path fill="none" stroke="#d8a456" stroke-width="2" d="M516.08,-540C516.08,-540 418.08,-540 418.08,-540 412.08,-540 406.08,-534 406.08,-528 406.08,-528 406.08,-516 406.08,-516 406.08,-510 412.08,-504 418.08,-504 418.08,-504 516.08,-504 516.08,-504 522.08,-504 528.08,-510 528.08,-516 528.08,-516 528.08,-528 528.08,-528 528.08,-534 522.08,-540 516.08,-540"/>
<text text-anchor="middle" x="467.08" y="-519.5" font-family="sans" font-size="10.00">viruses_alignment_stats</text>
</g>
<!-- 3&#45;&gt;2 -->
<g id="edge10" class="edge">
<title>3&#45;&gt;2</title>
<path fill="none" stroke="grey" stroke-width="2" d="M485.25,-503.34C493.2,-495.6 502.71,-486.36 511.51,-477.81"/>
<polygon fill="grey" stroke="grey" stroke-width="2" points="513.77,-480.49 518.5,-471.01 508.89,-475.47 513.77,-480.49"/>
</g>
<!-- 4 -->
<g id="node5" class="node">
<title>4</title>
<path fill="none" stroke="#56d8a9" stroke-width="2" d="M516.58,-612C516.58,-612 409.58,-612 409.58,-612 403.58,-612 397.58,-606 397.58,-600 397.58,-600 397.58,-588 397.58,-588 397.58,-582 403.58,-576 409.58,-576 409.58,-576 516.58,-576 516.58,-576 522.58,-576 528.58,-582 528.58,-588 528.58,-588 528.58,-600 528.58,-600 528.58,-606 522.58,-612 516.58,-612"/>
<text text-anchor="middle" x="463.08" y="-591.5" font-family="sans" font-size="10.00">align_to_viruses_for_stats</text>
</g>
<!-- 4&#45;&gt;3 -->
<g id="edge11" class="edge">
<title>4&#45;&gt;3</title>
<path fill="none" stroke="grey" stroke-width="2" d="M464.09,-575.34C464.46,-568.75 464.9,-561.08 465.33,-553.67"/>
<polygon fill="grey" stroke="grey" stroke-width="2" points="468.81,-554.11 465.88,-543.92 461.82,-553.71 468.81,-554.11"/>
</g>
<!-- 5 -->
<g id="node6" class="node">
<title>5</title>
<path fill="none" stroke="#d89556" stroke-width="2" d="M364.08,-684C364.08,-684 302.08,-684 302.08,-684 296.08,-684 290.08,-678 290.08,-672 290.08,-672 290.08,-660 290.08,-660 290.08,-654 296.08,-648 302.08,-648 302.08,-648 364.08,-648 364.08,-648 370.08,-648 376.08,-654 376.08,-660 376.08,-660 376.08,-672 376.08,-672 376.08,-678 370.08,-684 364.08,-684"/>
<text text-anchor="middle" x="333.08" y="-663.5" font-family="sans" font-size="10.00">non_host_reads</text>
</g>
<!-- 5&#45;&gt;4 -->
<g id="edge12" class="edge">
<title>5&#45;&gt;4</title>
<path fill="none" stroke="grey" stroke-width="2" d="M366.22,-647.15C382.11,-638.6 401.38,-628.22 418.53,-618.99"/>
<polygon fill="grey" stroke="grey" stroke-width="2" points="420.19,-622.07 427.33,-614.25 416.87,-615.91 420.19,-622.07"/>
</g>
<!-- 19 -->
<g id="node20" class="node">
<title>19</title>
<path fill="none" stroke="#78d856" stroke-width="2" d="M364.58,-612C364.58,-612 301.58,-612 301.58,-612 295.58,-612 289.58,-606 289.58,-600 289.58,-600 289.58,-588 289.58,-588 289.58,-582 295.58,-576 301.58,-576 301.58,-576 364.58,-576 364.58,-576 370.58,-576 376.58,-582 376.58,-588 376.58,-588 376.58,-600 376.58,-600 376.58,-606 370.58,-612 364.58,-612"/>
<text text-anchor="middle" x="333.08" y="-591.5" font-family="sans" font-size="10.00">align_to_viruses</text>
</g>
<!-- 5&#45;&gt;19 -->
<g id="edge27" class="edge">
<title>5&#45;&gt;19</title>
<path fill="none" stroke="grey" stroke-width="2" d="M333.08,-647.34C333.08,-640.75 333.08,-633.08 333.08,-625.67"/>
<polygon fill="grey" stroke="grey" stroke-width="2" points="336.58,-625.93 333.08,-615.93 329.58,-625.93 336.58,-625.93"/>
</g>
<!-- 25 -->
<g id="node26" class="node">
<title>25</title>
<path fill="none" stroke="#d85656" stroke-width="2" d="M292.58,-180C292.58,-180 209.58,-180 209.58,-180 203.58,-180 197.58,-174 197.58,-168 197.58,-168 197.58,-156 197.58,-156 197.58,-150 203.58,-144 209.58,-144 209.58,-144 292.58,-144 292.58,-144 298.58,-144 304.58,-150 304.58,-156 304.58,-156 304.58,-168 304.58,-168 304.58,-174 298.58,-180 292.58,-180"/>
<text text-anchor="middle" x="251.08" y="-159.5" font-family="sans" font-size="10.00">align_to_target_virus</text>
</g>
<!-- 5&#45;&gt;25 -->
<g id="edge33" class="edge">
<title>5&#45;&gt;25</title>
<path fill="none" stroke="grey" stroke-width="2" d="M304.81,-647.03C258.93,-616.28 168.78,-548.97 123.08,-468 103.2,-432.78 104.08,-419.45 104.08,-379 104.08,-379 104.08,-379 104.08,-305 104.08,-250.56 156.88,-210.37 199.2,-186.9"/>
<polygon fill="grey" stroke="grey" stroke-width="2" points="200.67,-190.08 207.85,-182.29 197.38,-183.9 200.67,-190.08"/>
</g>
<!-- 32 -->
<g id="node33" class="node">
<title>32</title>
<path fill="none" stroke="#5692d8" stroke-width="2" d="M91.08,-612C91.08,-612 41.08,-612 41.08,-612 35.08,-612 29.08,-606 29.08,-600 29.08,-600 29.08,-588 29.08,-588 29.08,-582 35.08,-576 41.08,-576 41.08,-576 91.08,-576 91.08,-576 97.08,-576 103.08,-582 103.08,-588 103.08,-588 103.08,-600 103.08,-600 103.08,-606 97.08,-612 91.08,-612"/>
<text text-anchor="middle" x="66.08" y="-591.5" font-family="sans" font-size="10.00">run_strainline</text>
</g>
<!-- 5&#45;&gt;32 -->
<g id="edge41" class="edge">
<title>5&#45;&gt;32</title>
<path fill="none" stroke="grey" stroke-width="2" d="M289.36,-655.37C245.53,-645.46 176.25,-629.09 117.08,-612 116.81,-611.92 116.54,-611.84 116.27,-611.77"/>
<polygon fill="grey" stroke="grey" stroke-width="2" points="117.33,-608.43 106.74,-608.85 115.28,-615.12 117.33,-608.43"/>
</g>
<!-- 6 -->
<g id="node7" class="node">
<title>6</title>
<path fill="none" stroke="#d86656" stroke-width="2" d="M458.08,-756C458.08,-756 388.08,-756 388.08,-756 382.08,-756 376.08,-750 376.08,-744 376.08,-744 376.08,-732 376.08,-732 376.08,-726 382.08,-720 388.08,-720 388.08,-720 458.08,-720 458.08,-720 464.08,-720 470.08,-726 470.08,-732 470.08,-732 470.08,-744 470.08,-744 470.08,-750 464.08,-756 458.08,-756"/>
<text text-anchor="middle" x="423.08" y="-735.5" font-family="sans" font-size="10.00">remove_host_dna</text>
</g>
<!-- 6&#45;&gt;5 -->
<g id="edge13" class="edge">
<title>6&#45;&gt;5</title>
<path fill="none" stroke="grey" stroke-width="2" d="M400.37,-719.34C390,-711.27 377.53,-701.57 366.15,-692.72"/>
<polygon fill="grey" stroke="grey" stroke-width="2" points="368.53,-690.14 358.49,-686.76 364.23,-695.66 368.53,-690.14"/>
</g>
<!-- 17 -->
<g id="node18" class="node">
<title>17</title>
<path fill="none" stroke="#56d8d8" stroke-width="2" d="M636.08,-540C636.08,-540 558.08,-540 558.08,-540 552.08,-540 546.08,-534 546.08,-528 546.08,-528 546.08,-516 546.08,-516 546.08,-510 552.08,-504 558.08,-504 558.08,-504 636.08,-504 636.08,-504 642.08,-504 648.08,-510 648.08,-516 648.08,-516 648.08,-528 648.08,-528 648.08,-534 642.08,-540 636.08,-540"/>
<text text-anchor="middle" x="597.08" y="-519.5" font-family="sans" font-size="10.00">host_removal_stats</text>
</g>
<!-- 6&#45;&gt;17 -->
<g id="edge25" class="edge">
<title>6&#45;&gt;17</title>
<path fill="none" stroke="grey" stroke-width="2" d="M440.95,-719.11C464.18,-695.48 505.49,-652.18 537.08,-612 552.29,-592.65 567.78,-569.58 579.2,-551.78"/>
<polygon fill="grey" stroke="grey" stroke-width="2" points="582.06,-553.8 584.46,-543.48 576.15,-550.05 582.06,-553.8"/>
</g>
<!-- 7 -->
<g id="node8" class="node">
<title>7</title>
<path fill="none" stroke="#56d89a" stroke-width="2" d="M459.58,-828C459.58,-828 386.58,-828 386.58,-828 380.58,-828 374.58,-822 374.58,-816 374.58,-816 374.58,-804 374.58,-804 374.58,-798 380.58,-792 386.58,-792 386.58,-792 459.58,-792 459.58,-792 465.58,-792 471.58,-798 471.58,-804 471.58,-804 471.58,-816 471.58,-816 471.58,-822 465.58,-828 459.58,-828"/>
<text text-anchor="middle" x="423.08" y="-807.5" font-family="sans" font-size="10.00">host_sam_to_bam</text>
</g>
<!-- 7&#45;&gt;6 -->
<g id="edge14" class="edge">
<title>7&#45;&gt;6</title>
<path fill="none" stroke="grey" stroke-width="2" d="M423.08,-791.34C423.08,-784.75 423.08,-777.08 423.08,-769.67"/>
<polygon fill="grey" stroke="grey" stroke-width="2" points="426.58,-769.93 423.08,-759.93 419.58,-769.93 426.58,-769.93"/>
</g>
<!-- 8 -->
<g id="node9" class="node">
<title>8</title>
<path fill="none" stroke="#c6d856" stroke-width="2" d="M463.08,-900C463.08,-900 383.08,-900 383.08,-900 377.08,-900 371.08,-894 371.08,-888 371.08,-888 371.08,-876 371.08,-876 371.08,-870 377.08,-864 383.08,-864 383.08,-864 463.08,-864 463.08,-864 469.08,-864 475.08,-870 475.08,-876 475.08,-876 475.08,-888 475.08,-888 475.08,-894 469.08,-900 463.08,-900"/>
<text text-anchor="middle" x="423.08" y="-879.5" font-family="sans" font-size="10.00">align_reads_to_host</text>
</g>
<!-- 8&#45;&gt;7 -->
<g id="edge15" class="edge">
<title>8&#45;&gt;7</title>
<path fill="none" stroke="grey" stroke-width="2" d="M423.08,-863.34C423.08,-856.75 423.08,-849.08 423.08,-841.67"/>
<polygon fill="grey" stroke="grey" stroke-width="2" points="426.58,-841.93 423.08,-831.93 419.58,-841.93 426.58,-841.93"/>
</g>
<!-- 9 -->
<g id="node10" class="node">
<title>9</title>
<path fill="none" stroke="#88d856" stroke-width="2" d="M444.08,-972C444.08,-972 402.08,-972 402.08,-972 396.08,-972 390.08,-966 390.08,-960 390.08,-960 390.08,-948 390.08,-948 390.08,-942 396.08,-936 402.08,-936 402.08,-936 444.08,-936 444.08,-936 450.08,-936 456.08,-942 456.08,-948 456.08,-948 456.08,-960 456.08,-960 456.08,-966 450.08,-972 444.08,-972"/>
<text text-anchor="middle" x="423.08" y="-951.5" font-family="sans" font-size="10.00">deduplicate</text>
</g>
<!-- 9&#45;&gt;8 -->
<g id="edge16" class="edge">
<title>9&#45;&gt;8</title>
<path fill="none" stroke="grey" stroke-width="2" d="M423.08,-935.34C423.08,-928.75 423.08,-921.08 423.08,-913.67"/>
<polygon fill="grey" stroke="grey" stroke-width="2" points="426.58,-913.93 423.08,-903.93 419.58,-913.93 426.58,-913.93"/>
</g>
<!-- 21 -->
<g id="node22" class="node">
<title>21</title>
<path fill="none" stroke="#5663d8" stroke-width="2" d="M158.08,-828C158.08,-828 54.08,-828 54.08,-828 48.08,-828 42.08,-822 42.08,-816 42.08,-816 42.08,-804 42.08,-804 42.08,-798 48.08,-792 54.08,-792 54.08,-792 158.08,-792 158.08,-792 164.08,-792 170.08,-798 170.08,-804 170.08,-804 170.08,-816 170.08,-816 170.08,-822 164.08,-828 158.08,-828"/>
<text text-anchor="middle" x="106.08" y="-807.5" font-family="sans" font-size="10.00">post_dedup_read_lengths</text>
</g>
<!-- 9&#45;&gt;21 -->
<g id="edge29" class="edge">
<title>9&#45;&gt;21</title>
<path fill="none" stroke="grey" stroke-width="2" d="M389.15,-937.8C333.67,-912.95 223.17,-863.45 157.85,-834.19"/>
<polygon fill="grey" stroke="grey" stroke-width="2" points="159.52,-831.1 148.96,-830.21 156.66,-837.49 159.52,-831.1"/>
</g>
<!-- 10 -->
<g id="node11" class="node">
<title>10</title>
<path fill="none" stroke="#56d0d8" stroke-width="2" d="M528.08,-1404C528.08,-1404 490.08,-1404 490.08,-1404 484.08,-1404 478.08,-1398 478.08,-1392 478.08,-1392 478.08,-1380 478.08,-1380 478.08,-1374 484.08,-1368 490.08,-1368 490.08,-1368 528.08,-1368 528.08,-1368 534.08,-1368 540.08,-1374 540.08,-1380 540.08,-1380 540.08,-1392 540.08,-1392 540.08,-1398 534.08,-1404 528.08,-1404"/>
<text text-anchor="middle" x="509.08" y="-1383.5" font-family="sans" font-size="10.00">trim_reads</text>
</g>
<!-- 10&#45;&gt;9 -->
<g id="edge18" class="edge">
<title>10&#45;&gt;9</title>
<path fill="none" stroke="grey" stroke-width="2" d="M509.08,-1367.07C509.08,-1340.13 509.08,-1287.62 509.08,-1243 509.08,-1243 509.08,-1243 509.08,-1097 509.08,-1056.55 511.42,-1042.36 490.08,-1008 483.51,-997.43 474.06,-988.1 464.31,-980.33"/>
<polygon fill="grey" stroke="grey" stroke-width="2" points="466.71,-977.75 456.59,-974.61 462.55,-983.38 466.71,-977.75"/>
</g>
<!-- 16 -->
<g id="node17" class="node">
<title>16</title>
<path fill="none" stroke="#d87556" stroke-width="2" d="M468.08,-1332C468.08,-1332 386.08,-1332 386.08,-1332 380.08,-1332 374.08,-1326 374.08,-1320 374.08,-1320 374.08,-1308 374.08,-1308 374.08,-1302 380.08,-1296 386.08,-1296 386.08,-1296 468.08,-1296 468.08,-1296 474.08,-1296 480.08,-1302 480.08,-1308 480.08,-1308 480.08,-1320 480.08,-1320 480.08,-1326 474.08,-1332 468.08,-1332"/>
<text text-anchor="middle" x="427.08" y="-1311.5" font-family="sans" font-size="10.00">bin_reads_by_length</text>
</g>
<!-- 10&#45;&gt;16 -->
<g id="edge24" class="edge">
<title>10&#45;&gt;16</title>
<path fill="none" stroke="grey" stroke-width="2" d="M488.39,-1367.34C479.14,-1359.44 468.04,-1349.96 457.84,-1341.26"/>
<polygon fill="grey" stroke="grey" stroke-width="2" points="460.23,-1338.7 450.35,-1334.87 455.69,-1344.02 460.23,-1338.7"/>
</g>
<!-- 20 -->
<g id="node21" class="node">
<title>20</title>
<path fill="none" stroke="#b6d856" stroke-width="2" d="M699.08,-1260C699.08,-1260 601.08,-1260 601.08,-1260 595.08,-1260 589.08,-1254 589.08,-1248 589.08,-1248 589.08,-1236 589.08,-1236 589.08,-1230 595.08,-1224 601.08,-1224 601.08,-1224 699.08,-1224 699.08,-1224 705.08,-1224 711.08,-1230 711.08,-1236 711.08,-1236 711.08,-1248 711.08,-1248 711.08,-1254 705.08,-1260 699.08,-1260"/>
<text text-anchor="middle" x="650.08" y="-1239.5" font-family="sans" font-size="10.00">pre_dedup_read_lengths</text>
</g>
<!-- 10&#45;&gt;20 -->
<g id="edge28" class="edge">
<title>10&#45;&gt;20</title>
<path fill="none" stroke="grey" stroke-width="2" d="M526.94,-1367.02C551.3,-1342.48 595.17,-1298.3 623.43,-1269.84"/>
<polygon fill="grey" stroke="grey" stroke-width="2" points="625.67,-1272.55 630.23,-1262.99 620.7,-1267.62 625.67,-1272.55"/>
</g>
<!-- 11 -->
<g id="node12" class="node">
<title>11</title>
<path fill="none" stroke="#56d8c9" stroke-width="2" d="M533.58,-1476C533.58,-1476 484.58,-1476 484.58,-1476 478.58,-1476 472.58,-1470 472.58,-1464 472.58,-1464 472.58,-1452 472.58,-1452 472.58,-1446 478.58,-1440 484.58,-1440 484.58,-1440 533.58,-1440 533.58,-1440 539.58,-1440 545.58,-1446 545.58,-1452 545.58,-1452 545.58,-1464 545.58,-1464 545.58,-1470 539.58,-1476 533.58,-1476"/>
<text text-anchor="middle" x="509.08" y="-1455.5" font-family="sans" font-size="10.00">concat_parts</text>
</g>
<!-- 11&#45;&gt;10 -->
<g id="edge19" class="edge">
<title>11&#45;&gt;10</title>
<path fill="none" stroke="grey" stroke-width="2" d="M509.08,-1439.34C509.08,-1432.75 509.08,-1425.08 509.08,-1417.67"/>
<polygon fill="grey" stroke="grey" stroke-width="2" points="512.58,-1417.93 509.08,-1407.93 505.58,-1417.93 512.58,-1417.93"/>
</g>
<!-- 12 -->
<g id="node13" class="node">
<title>12</title>
<path fill="none" stroke="#d88556" stroke-width="2" d="M469.08,-1044C469.08,-1044 377.08,-1044 377.08,-1044 371.08,-1044 365.08,-1038 365.08,-1032 365.08,-1032 365.08,-1020 365.08,-1020 365.08,-1014 371.08,-1008 377.08,-1008 377.08,-1008 469.08,-1008 469.08,-1008 475.08,-1008 481.08,-1014 481.08,-1020 481.08,-1020 481.08,-1032 481.08,-1032 481.08,-1038 475.08,-1044 469.08,-1044"/>
<text text-anchor="middle" x="423.08" y="-1023.5" font-family="sans" font-size="10.00">merge_duplicates_lists</text>
</g>
<!-- 12&#45;&gt;9 -->
<g id="edge17" class="edge">
<title>12&#45;&gt;9</title>
<path fill="none" stroke="grey" stroke-width="2" d="M423.08,-1007.34C423.08,-1000.75 423.08,-993.08 423.08,-985.67"/>
<polygon fill="grey" stroke="grey" stroke-width="2" points="426.58,-985.93 423.08,-975.93 419.58,-985.93 426.58,-985.93"/>
</g>
<!-- 13 -->
<g id="node14" class="node">
<title>13</title>
<path fill="none" stroke="#56c1d8" stroke-width="2" d="M454.08,-1116C454.08,-1116 396.08,-1116 396.08,-1116 390.08,-1116 384.08,-1110 384.08,-1104 384.08,-1104 384.08,-1092 384.08,-1092 384.08,-1086 390.08,-1080 396.08,-1080 396.08,-1080 454.08,-1080 454.08,-1080 460.08,-1080 466.08,-1086 466.08,-1092 466.08,-1092 466.08,-1104 466.08,-1104 466.08,-1110 460.08,-1116 454.08,-1116"/>
<text text-anchor="middle" x="425.08" y="-1095.5" font-family="sans" font-size="10.00">find_duplicates</text>
</g>
<!-- 13&#45;&gt;12 -->
<g id="edge20" class="edge">
<title>13&#45;&gt;12</title>
<path fill="none" stroke="grey" stroke-width="2" d="M424.57,-1079.34C424.39,-1072.75 424.17,-1065.08 423.96,-1057.67"/>
<polygon fill="grey" stroke="grey" stroke-width="2" points="427.46,-1057.82 423.68,-1047.93 420.46,-1058.02 427.46,-1057.82"/>
</g>
<!-- 14 -->
<g id="node15" class="node">
<title>14</title>
<path fill="none" stroke="#56d87b" stroke-width="2" d="M467.58,-1188C467.58,-1188 384.58,-1188 384.58,-1188 378.58,-1188 372.58,-1182 372.58,-1176 372.58,-1176 372.58,-1164 372.58,-1164 372.58,-1158 378.58,-1152 384.58,-1152 384.58,-1152 467.58,-1152 467.58,-1152 473.58,-1152 479.58,-1158 479.58,-1164 479.58,-1164 479.58,-1176 479.58,-1176 479.58,-1182 473.58,-1188 467.58,-1188"/>
<text text-anchor="middle" x="426.08" y="-1167.5" font-family="sans" font-size="10.00">blat_clustered_reads</text>
</g>
<!-- 14&#45;&gt;13 -->
<g id="edge21" class="edge">
<title>14&#45;&gt;13</title>
<path fill="none" stroke="grey" stroke-width="2" d="M425.83,-1151.34C425.73,-1144.75 425.62,-1137.08 425.52,-1129.67"/>
<polygon fill="grey" stroke="grey" stroke-width="2" points="429.02,-1129.88 425.38,-1119.93 422.02,-1129.98 429.02,-1129.88"/>
</g>
<!-- 15 -->
<g id="node16" class="node">
<title>15</title>
<path fill="none" stroke="#56d88a" stroke-width="2" d="M451.58,-1260C451.58,-1260 400.58,-1260 400.58,-1260 394.58,-1260 388.58,-1254 388.58,-1248 388.58,-1248 388.58,-1236 388.58,-1236 388.58,-1230 394.58,-1224 400.58,-1224 400.58,-1224 451.58,-1224 451.58,-1224 457.58,-1224 463.58,-1230 463.58,-1236 463.58,-1236 463.58,-1248 463.58,-1248 463.58,-1254 457.58,-1260 451.58,-1260"/>
<text text-anchor="middle" x="426.08" y="-1239.5" font-family="sans" font-size="10.00">cluster_reads</text>
</g>
<!-- 15&#45;&gt;14 -->
<g id="edge22" class="edge">
<title>15&#45;&gt;14</title>
<path fill="none" stroke="grey" stroke-width="2" d="M426.08,-1223.34C426.08,-1216.75 426.08,-1209.08 426.08,-1201.67"/>
<polygon fill="grey" stroke="grey" stroke-width="2" points="429.58,-1201.93 426.08,-1191.93 422.58,-1201.93 429.58,-1201.93"/>
</g>
<!-- 16&#45;&gt;15 -->
<g id="edge23" class="edge">
<title>16&#45;&gt;15</title>
<path fill="none" stroke="grey" stroke-width="2" d="M426.83,-1295.34C426.73,-1288.75 426.62,-1281.08 426.52,-1273.67"/>
<polygon fill="grey" stroke="grey" stroke-width="2" points="430.02,-1273.88 426.38,-1263.93 423.02,-1273.98 430.02,-1273.88"/>
</g>
<!-- 17&#45;&gt;1 -->
<g id="edge9" class="edge">
<title>17&#45;&gt;1</title>
<path fill="none" stroke="grey" stroke-width="2" d="M608.12,-503.13C618.08,-484.55 629.53,-455.03 618.08,-432 612.7,-421.17 603.93,-411.97 594.39,-404.42"/>
<polygon fill="grey" stroke="grey" stroke-width="2" points="596.5,-401.62 586.33,-398.64 592.42,-407.31 596.5,-401.62"/>
</g>
<!-- 18 -->
<g id="node19" class="node">
<title>18</title>
<path fill="none" stroke="#5673d8" stroke-width="2" d="M376.08,-540C376.08,-540 290.08,-540 290.08,-540 284.08,-540 278.08,-534 278.08,-528 278.08,-528 278.08,-516 278.08,-516 278.08,-510 284.08,-504 290.08,-504 290.08,-504 376.08,-504 376.08,-504 382.08,-504 388.08,-510 388.08,-516 388.08,-516 388.08,-528 388.08,-528 388.08,-534 382.08,-540 376.08,-540"/>
<text text-anchor="middle" x="333.08" y="-519.5" font-family="sans" font-size="10.00">viruses_sam_to_bam</text>
</g>
<!-- 18&#45;&gt;0 -->
<g id="edge6" class="edge">
<title>18&#45;&gt;0</title>
<path fill="none" stroke="grey" stroke-width="2" d="M353.95,-503.29C363.88,-493.79 375.09,-481.31 382.08,-468 400.93,-432.11 402.08,-419.54 402.08,-379 402.08,-379 402.08,-379 402.08,-161 402.08,-122.65 402.08,-78.48 402.08,-49.72"/>
<polygon fill="grey" stroke="grey" stroke-width="2" points="405.58,-49.96 402.08,-39.96 398.58,-49.96 405.58,-49.96"/>
</g>
<!-- 22 -->
<g id="node23" class="node">
<title>22</title>
<path fill="none" stroke="#5682d8" stroke-width="2" d="M507.58,-324C507.58,-324 442.58,-324 442.58,-324 436.58,-324 430.58,-318 430.58,-312 430.58,-312 430.58,-300 430.58,-300 430.58,-294 436.58,-288 442.58,-288 442.58,-288 507.58,-288 507.58,-288 513.58,-288 519.58,-294 519.58,-300 519.58,-300 519.58,-312 519.58,-312 519.58,-318 513.58,-324 507.58,-324"/>
<text text-anchor="middle" x="475.08" y="-303.5" font-family="sans" font-size="10.00">reads_per_strain</text>
</g>
<!-- 18&#45;&gt;22 -->
<g id="edge30" class="edge">
<title>18&#45;&gt;22</title>
<path fill="none" stroke="grey" stroke-width="2" d="M372.21,-503.01C387.63,-494.29 404.41,-482.53 416.08,-468 447.36,-429.08 462.98,-372.04 470.03,-337.34"/>
<polygon fill="grey" stroke="grey" stroke-width="2" points="473.42,-338.24 471.84,-327.77 466.54,-336.94 473.42,-338.24"/>
</g>
<!-- 29 -->
<g id="node30" class="node">
<title>29</title>
<path fill="none" stroke="#a7d856" stroke-width="2" d="M266.08,-468C266.08,-468 236.08,-468 236.08,-468 230.08,-468 224.08,-462 224.08,-456 224.08,-456 224.08,-444 224.08,-444 224.08,-438 230.08,-432 236.08,-432 236.08,-432 266.08,-432 266.08,-432 272.08,-432 278.08,-438 278.08,-444 278.08,-444 278.08,-456 278.08,-456 278.08,-462 272.08,-468 266.08,-468"/>
<text text-anchor="middle" x="251.08" y="-447.5" font-family="sans" font-size="10.00">mpileup</text>
</g>
<!-- 18&#45;&gt;29 -->
<g id="edge40" class="edge">
<title>18&#45;&gt;29</title>
<path fill="none" stroke="grey" stroke-width="2" d="M312.39,-503.34C303.14,-495.44 292.04,-485.96 281.84,-477.26"/>
<polygon fill="grey" stroke="grey" stroke-width="2" points="284.23,-474.7 274.35,-470.87 279.69,-480.02 284.23,-474.7"/>
</g>
<!-- 19&#45;&gt;18 -->
<g id="edge26" class="edge">
<title>19&#45;&gt;18</title>
<path fill="none" stroke="grey" stroke-width="2" d="M333.08,-575.34C333.08,-568.75 333.08,-561.08 333.08,-553.67"/>
<polygon fill="grey" stroke="grey" stroke-width="2" points="336.58,-553.93 333.08,-543.93 329.58,-553.93 336.58,-553.93"/>
</g>
<!-- 20&#45;&gt;0 -->
<g id="edge3" class="edge">
<title>20&#45;&gt;0</title>
<path fill="none" stroke="grey" stroke-width="2" d="M655.47,-1223.26C663.08,-1196.56 676.08,-1144.36 676.08,-1099 676.08,-1099 676.08,-1099 676.08,-161 676.08,-57.13 518.95,-29.15 442.67,-21.68"/>
<polygon fill="grey" stroke="grey" stroke-width="2" points="443.14,-18.21 432.87,-20.81 442.53,-25.18 443.14,-18.21"/>
</g>
<!-- 21&#45;&gt;0 -->
<g id="edge7" class="edge">
<title>21&#45;&gt;0</title>
<path fill="none" stroke="grey" stroke-width="2" d="M62.69,-791.14C47.07,-782.67 30.7,-771.05 20.08,-756 -3.24,-722.95 1.08,-707.45 1.08,-667 1.08,-667 1.08,-667 1.08,-161 1.08,-108.11 33.76,-97.54 80.08,-72 127.93,-45.61 286.52,-28.9 361.78,-22.26"/>
<polygon fill="grey" stroke="grey" stroke-width="2" points="361.71,-25.78 371.37,-21.43 361.11,-18.81 361.71,-25.78"/>
</g>
<!-- 22&#45;&gt;0 -->
<g id="edge5" class="edge">
<title>22&#45;&gt;0</title>
<path fill="none" stroke="grey" stroke-width="2" d="M470.63,-287.15C460.87,-248.11 436.82,-152.19 416.08,-72 414.15,-64.54 412.04,-56.49 410.05,-48.98"/>
<polygon fill="grey" stroke="grey" stroke-width="2" points="413.51,-48.35 407.57,-39.58 406.74,-50.14 413.51,-48.35"/>
</g>
<!-- 23 -->
<g id="node24" class="node">
<title>23</title>
<path fill="none" stroke="#d8bc56" stroke-width="2" d="M272.58,-108C272.58,-108 229.58,-108 229.58,-108 223.58,-108 217.58,-102 217.58,-96 217.58,-96 217.58,-84 217.58,-84 217.58,-78 223.58,-72 229.58,-72 229.58,-72 272.58,-72 272.58,-72 278.58,-72 284.58,-78 284.58,-84 284.58,-84 284.58,-96 284.58,-96 284.58,-102 278.58,-108 272.58,-108"/>
<text text-anchor="middle" x="251.08" y="-87.5" font-family="sans" font-size="10.00">run_rvhaplo</text>
</g>
<!-- 23&#45;&gt;0 -->
<g id="edge1" class="edge">
<title>23&#45;&gt;0</title>
<path fill="none" stroke="grey" stroke-width="2" d="M285.34,-73.12C308.42,-62.42 338.91,-48.28 362.94,-37.14"/>
<polygon fill="grey" stroke="grey" stroke-width="2" points="364.15,-40.44 371.76,-33.06 361.21,-34.09 364.15,-40.44"/>
</g>
<!-- 24 -->
<g id="node25" class="node">
<title>24</title>
<path fill="none" stroke="#d8ac56" stroke-width="2" d="M167.58,-180C167.58,-180 124.58,-180 124.58,-180 118.58,-180 112.58,-174 112.58,-168 112.58,-168 112.58,-156 112.58,-156 112.58,-150 118.58,-144 124.58,-144 124.58,-144 167.58,-144 167.58,-144 173.58,-144 179.58,-150 179.58,-156 179.58,-156 179.58,-168 179.58,-168 179.58,-174 173.58,-180 167.58,-180"/>
<text text-anchor="middle" x="146.08" y="-159.5" font-family="sans" font-size="10.00">get_rvhaplo</text>
</g>
<!-- 24&#45;&gt;23 -->
<g id="edge32" class="edge">
<title>24&#45;&gt;23</title>
<path fill="none" stroke="grey" stroke-width="2" d="M172.85,-143.15C185.31,-134.84 200.35,-124.82 213.89,-115.79"/>
<polygon fill="grey" stroke="grey" stroke-width="2" points="215.46,-118.95 221.84,-110.49 211.58,-113.13 215.46,-118.95"/>
</g>
<!-- 25&#45;&gt;23 -->
<g id="edge31" class="edge">
<title>25&#45;&gt;23</title>
<path fill="none" stroke="grey" stroke-width="2" d="M251.08,-143.34C251.08,-136.75 251.08,-129.08 251.08,-121.67"/>
<polygon fill="grey" stroke="grey" stroke-width="2" points="254.58,-121.93 251.08,-111.93 247.58,-121.93 254.58,-121.93"/>
</g>
<!-- 26 -->
<g id="node27" class="node">
<title>26</title>
<path fill="none" stroke="#d8cb56" stroke-width="2" d="M290.58,-252C290.58,-252 211.58,-252 211.58,-252 205.58,-252 199.58,-246 199.58,-240 199.58,-240 199.58,-228 199.58,-228 199.58,-222 205.58,-216 211.58,-216 211.58,-216 290.58,-216 290.58,-216 296.58,-216 302.58,-222 302.58,-228 302.58,-228 302.58,-240 302.58,-240 302.58,-246 296.58,-252 290.58,-252"/>
<text text-anchor="middle" x="251.08" y="-231.5" font-family="sans" font-size="10.00">split_viral_genomes</text>
</g>
<!-- 26&#45;&gt;25 -->
<g id="edge34" class="edge">
<title>26&#45;&gt;25</title>
<path fill="none" stroke="grey" stroke-width="2" d="M251.08,-215.34C251.08,-208.75 251.08,-201.08 251.08,-193.67"/>
<polygon fill="grey" stroke="grey" stroke-width="2" points="254.58,-193.93 251.08,-183.93 247.58,-193.93 254.58,-193.93"/>
</g>
<!-- 27 -->
<g id="node28" class="node">
<title>27</title>
<path fill="none" stroke="#d6d856" stroke-width="2" d="M288.08,-324C288.08,-324 214.08,-324 214.08,-324 208.08,-324 202.08,-318 202.08,-312 202.08,-312 202.08,-300 202.08,-300 202.08,-294 208.08,-288 214.08,-288 214.08,-288 288.08,-288 288.08,-288 294.08,-288 300.08,-294 300.08,-300 300.08,-300 300.08,-312 300.08,-312 300.08,-318 294.08,-324 288.08,-324"/>
<text text-anchor="middle" x="251.08" y="-303.5" font-family="sans" font-size="10.00">get_viral_genomes</text>
</g>
<!-- 27&#45;&gt;26 -->
<g id="edge35" class="edge">
<title>27&#45;&gt;26</title>
<path fill="none" stroke="grey" stroke-width="2" d="M251.08,-287.34C251.08,-280.75 251.08,-273.08 251.08,-265.67"/>
<polygon fill="grey" stroke="grey" stroke-width="2" points="254.58,-265.93 251.08,-255.93 247.58,-265.93 254.58,-265.93"/>
</g>
<!-- 28 -->
<g id="node29" class="node">
<title>28</title>
<path fill="none" stroke="#61d856" stroke-width="2" d="M284.58,-396C284.58,-396 217.58,-396 217.58,-396 211.58,-396 205.58,-390 205.58,-384 205.58,-384 205.58,-372 205.58,-372 205.58,-366 211.58,-360 217.58,-360 217.58,-360 284.58,-360 284.58,-360 290.58,-360 296.58,-366 296.58,-372 296.58,-372 296.58,-384 296.58,-384 296.58,-390 290.58,-396 284.58,-396"/>
<text text-anchor="middle" x="251.08" y="-375.5" font-family="sans" font-size="10.00">find_viral_targets</text>
</g>
<!-- 28&#45;&gt;27 -->
<g id="edge36" class="edge">
<title>28&#45;&gt;27</title>
<path fill="none" stroke="grey" stroke-width="2" d="M251.08,-359.34C251.08,-352.75 251.08,-345.08 251.08,-337.67"/>
<polygon fill="grey" stroke="grey" stroke-width="2" points="254.58,-337.93 251.08,-327.93 247.58,-337.93 254.58,-337.93"/>
</g>
<!-- 29&#45;&gt;28 -->
<g id="edge37" class="edge">
<title>29&#45;&gt;28</title>
<path fill="none" stroke="grey" stroke-width="2" d="M251.08,-431.34C251.08,-424.75 251.08,-417.08 251.08,-409.67"/>
<polygon fill="grey" stroke="grey" stroke-width="2" points="254.58,-409.93 251.08,-399.93 247.58,-409.93 254.58,-409.93"/>
</g>
<!-- 30 -->
<g id="node31" class="node">
<title>30</title>
<path fill="none" stroke="#56d85b" stroke-width="2" d="M194.08,-468C194.08,-468 144.08,-468 144.08,-468 138.08,-468 132.08,-462 132.08,-456 132.08,-456 132.08,-444 132.08,-444 132.08,-438 138.08,-432 144.08,-432 144.08,-432 194.08,-432 194.08,-432 200.08,-432 206.08,-438 206.08,-444 206.08,-444 206.08,-456 206.08,-456 206.08,-462 200.08,-468 194.08,-468"/>
<text text-anchor="middle" x="169.08" y="-447.5" font-family="sans" font-size="10.00">all_virus_bed</text>
</g>
<!-- 30&#45;&gt;28 -->
<g id="edge39" class="edge">
<title>30&#45;&gt;28</title>
<path fill="none" stroke="grey" stroke-width="2" d="M189.77,-431.34C199.02,-423.44 210.12,-413.96 220.32,-405.26"/>
<polygon fill="grey" stroke="grey" stroke-width="2" points="222.47,-408.02 227.81,-398.87 217.93,-402.7 222.47,-408.02"/>
</g>
<!-- 31 -->
<g id="node32" class="node">
<title>31</title>
<path fill="none" stroke="#56a2d8" stroke-width="2" d="M361.58,-468C361.58,-468 308.58,-468 308.58,-468 302.58,-468 296.58,-462 296.58,-456 296.58,-456 296.58,-444 296.58,-444 296.58,-438 302.58,-432 308.58,-432 308.58,-432 361.58,-432 361.58,-432 367.58,-432 373.58,-438 373.58,-444 373.58,-444 373.58,-456 373.58,-456 373.58,-462 367.58,-468 361.58,-468"/>
<text text-anchor="middle" x="335.08" y="-447.5" font-family="sans" font-size="10.00">gen_strain_db</text>
</g>
<!-- 31&#45;&gt;28 -->
<g id="edge38" class="edge">
<title>31&#45;&gt;28</title>
<path fill="none" stroke="grey" stroke-width="2" d="M313.88,-431.34C304.31,-423.36 292.8,-413.77 282.27,-404.99"/>
<polygon fill="grey" stroke="grey" stroke-width="2" points="284.81,-402.55 274.89,-398.84 280.33,-407.93 284.81,-402.55"/>
</g>
<!-- 32&#45;&gt;0 -->
<g id="edge4" class="edge">
<title>32&#45;&gt;0</title>
<path fill="none" stroke="grey" stroke-width="2" d="M66.08,-575.07C66.08,-548.13 66.08,-495.62 66.08,-451 66.08,-451 66.08,-451 66.08,-161 66.08,-34.05 272.1,-18.85 361.5,-18.23"/>
<polygon fill="grey" stroke="grey" stroke-width="2" points="361.27,-21.72 371.27,-18.23 361.27,-14.72 361.27,-21.72"/>
</g>
<!-- 33 -->
<g id="node34" class="node">
<title>33</title>
<path fill="none" stroke="#56d8b9" stroke-width="2" d="M89.58,-684C89.58,-684 42.58,-684 42.58,-684 36.58,-684 30.58,-678 30.58,-672 30.58,-672 30.58,-660 30.58,-660 30.58,-654 36.58,-648 42.58,-648 42.58,-648 89.58,-648 89.58,-648 95.58,-648 101.58,-654 101.58,-660 101.58,-660 101.58,-672 101.58,-672 101.58,-678 95.58,-684 89.58,-684"/>
<text text-anchor="middle" x="66.08" y="-663.5" font-family="sans" font-size="10.00">link_daccord</text>
</g>
<!-- 33&#45;&gt;32 -->
<g id="edge42" class="edge">
<title>33&#45;&gt;32</title>
<path fill="none" stroke="grey" stroke-width="2" d="M66.08,-647.34C66.08,-640.75 66.08,-633.08 66.08,-625.67"/>
<polygon fill="grey" stroke="grey" stroke-width="2" points="69.58,-625.93 66.08,-615.93 62.58,-625.93 69.58,-625.93"/>
</g>
<!-- 34 -->
<g id="node35" class="node">
<title>34</title>
<path fill="none" stroke="#56b1d8" stroke-width="2" d="M91.08,-756C91.08,-756 41.08,-756 41.08,-756 35.08,-756 29.08,-750 29.08,-744 29.08,-744 29.08,-732 29.08,-732 29.08,-726 35.08,-720 41.08,-720 41.08,-720 91.08,-720 91.08,-720 97.08,-720 103.08,-726 103.08,-732 103.08,-732 103.08,-744 103.08,-744 103.08,-750 97.08,-756 91.08,-756"/>
<text text-anchor="middle" x="66.08" y="-735.5" font-family="sans" font-size="10.00">get_strainline</text>
</g>
<!-- 34&#45;&gt;33 -->
<g id="edge43" class="edge">
<title>34&#45;&gt;33</title>
<path fill="none" stroke="grey" stroke-width="2" d="M66.08,-719.34C66.08,-712.75 66.08,-705.08 66.08,-697.67"/>
<polygon fill="grey" stroke="grey" stroke-width="2" points="69.58,-697.93 66.08,-687.93 62.58,-697.93 69.58,-697.93"/>
</g>
</g>
</svg>
