<?xml version="1.0" encoding="UTF-8" standalone="no"?>
<!DOCTYPE svg PUBLIC "-//W3C//DTD SVG 1.1//EN"
 "http://www.w3.org/Graphics/SVG/1.1/DTD/svg11.dtd">
<!-- Generated by graphviz version 12.1.2 (20240928.0832)
 -->
<!-- Title: snakemake_dag Pages: 1 -->
<svg width="998pt" height="1268pt"
 viewBox="0.00 0.00 997.56 1268.00" xmlns="http://www.w3.org/2000/svg" xmlns:xlink="http://www.w3.org/1999/xlink">
<g id="graph0" class="graph" transform="scale(1 1) rotate(0) translate(4 1264)">
<title>snakemake_dag</title>
<polygon fill="white" stroke="none" points="-4,4 -4,-1264 993.56,-1264 993.56,4 -4,4"/>
<!-- 0 -->
<g id="node1" class="node">
<title>0</title>
<path fill="none" stroke="#d86656" stroke-width="2" d="M495.18,-36C495.18,-36 465.18,-36 465.18,-36 459.18,-36 453.18,-30 453.18,-24 453.18,-24 453.18,-12 453.18,-12 453.18,-6 459.18,0 465.18,0 465.18,0 495.18,0 495.18,0 501.18,0 507.18,-6 507.18,-12 507.18,-12 507.18,-24 507.18,-24 507.18,-30 501.18,-36 495.18,-36"/>
<text text-anchor="middle" x="480.18" y="-14.12" font-family="sans" font-size="10.00">all</text>
</g>
<!-- 1 -->
<g id="node2" class="node">
<title>1</title>
<path fill="none" stroke="#70d856" stroke-width="2" d="M135.93,-180C135.93,-180 76.43,-180 76.43,-180 70.43,-180 64.43,-174 64.43,-168 64.43,-168 64.43,-156 64.43,-156 64.43,-150 70.43,-144 76.43,-144 76.43,-144 135.93,-144 135.93,-144 141.93,-144 147.93,-150 147.93,-156 147.93,-156 147.93,-168 147.93,-168 147.93,-174 141.93,-180 135.93,-180"/>
<text text-anchor="middle" x="106.18" y="-158.12" font-family="sans" font-size="10.00">on_target_stats</text>
</g>
<!-- 1&#45;&gt;0 -->
<g id="edge4" class="edge">
<title>1&#45;&gt;0</title>
<path fill="none" stroke="grey" stroke-width="2" d="M117.76,-143.09C132.13,-122.43 158.63,-89.14 190.18,-72 270.92,-28.15 381.03,-19.74 439.61,-18.62"/>
<polygon fill="grey" stroke="grey" stroke-width="2" points="439.34,-22.13 449.3,-18.52 439.26,-15.13 439.34,-22.13"/>
</g>
<!-- 2 -->
<g id="node3" class="node">
<title>2</title>
<path fill="none" stroke="#afd856" stroke-width="2" d="M164.43,-252C164.43,-252 47.93,-252 47.93,-252 41.93,-252 35.93,-246 35.93,-240 35.93,-240 35.93,-228 35.93,-228 35.93,-222 41.93,-216 47.93,-216 47.93,-216 164.43,-216 164.43,-216 170.43,-216 176.43,-222 176.43,-228 176.43,-228 176.43,-240 176.43,-240 176.43,-246 170.43,-252 164.43,-252"/>
<text text-anchor="middle" x="106.18" y="-230.12" font-family="sans" font-size="10.00">merge_viral_alignment_stats</text>
</g>
<!-- 2&#45;&gt;1 -->
<g id="edge12" class="edge">
<title>2&#45;&gt;1</title>
<path fill="none" stroke="grey" stroke-width="2" d="M106.18,-215.34C106.18,-208.75 106.18,-201.08 106.18,-193.67"/>
<polygon fill="grey" stroke="grey" stroke-width="2" points="109.68,-193.93 106.18,-183.93 102.68,-193.93 109.68,-193.93"/>
</g>
<!-- 3 -->
<g id="node4" class="node">
<title>3</title>
<path fill="none" stroke="#5673d8" stroke-width="2" d="M162.06,-324C162.06,-324 64.31,-324 64.31,-324 58.31,-324 52.31,-318 52.31,-312 52.31,-312 52.31,-300 52.31,-300 52.31,-294 58.31,-288 64.31,-288 64.31,-288 162.06,-288 162.06,-288 168.06,-288 174.06,-294 174.06,-300 174.06,-300 174.06,-312 174.06,-312 174.06,-318 168.06,-324 162.06,-324"/>
<text text-anchor="middle" x="113.18" y="-302.12" font-family="sans" font-size="10.00">viruses_alignment_stats</text>
</g>
<!-- 3&#45;&gt;2 -->
<g id="edge14" class="edge">
<title>3&#45;&gt;2</title>
<path fill="none" stroke="grey" stroke-width="2" d="M111.41,-287.34C110.76,-280.75 109.99,-273.08 109.25,-265.67"/>
<polygon fill="grey" stroke="grey" stroke-width="2" points="112.75,-265.52 108.27,-255.91 105.78,-266.21 112.75,-265.52"/>
</g>
<!-- 4 -->
<g id="node5" class="node">
<title>4</title>
<path fill="none" stroke="#d89556" stroke-width="2" d="M416.18,-756C416.18,-756 370.18,-756 370.18,-756 364.18,-756 358.18,-750 358.18,-744 358.18,-744 358.18,-732 358.18,-732 358.18,-726 364.18,-720 370.18,-720 370.18,-720 416.18,-720 416.18,-720 422.18,-720 428.18,-726 428.18,-732 428.18,-732 428.18,-744 428.18,-744 428.18,-750 422.18,-756 416.18,-756"/>
<text text-anchor="middle" x="393.18" y="-734.12" font-family="sans" font-size="10.00">get_host_ref</text>
</g>
<!-- 9 -->
<g id="node10" class="node">
<title>9</title>
<path fill="none" stroke="#56d8b9" stroke-width="2" d="M432.68,-684C432.68,-684 353.68,-684 353.68,-684 347.68,-684 341.68,-678 341.68,-672 341.68,-672 341.68,-660 341.68,-660 341.68,-654 347.68,-648 353.68,-648 353.68,-648 432.68,-648 432.68,-648 438.68,-648 444.68,-654 444.68,-660 444.68,-660 444.68,-672 444.68,-672 444.68,-678 438.68,-684 432.68,-684"/>
<text text-anchor="middle" x="393.18" y="-662.12" font-family="sans" font-size="10.00">align_reads_to_host</text>
</g>
<!-- 4&#45;&gt;9 -->
<g id="edge20" class="edge">
<title>4&#45;&gt;9</title>
<path fill="none" stroke="grey" stroke-width="2" d="M393.18,-719.34C393.18,-712.75 393.18,-705.08 393.18,-697.67"/>
<polygon fill="grey" stroke="grey" stroke-width="2" points="396.68,-697.93 393.18,-687.93 389.68,-697.93 396.68,-697.93"/>
</g>
<!-- 5 -->
<g id="node6" class="node">
<title>5</title>
<path fill="none" stroke="#56d88a" stroke-width="2" d="M206.18,-396C206.18,-396 34.18,-396 34.18,-396 28.18,-396 22.18,-390 22.18,-384 22.18,-384 22.18,-372 22.18,-372 22.18,-366 28.18,-360 34.18,-360 34.18,-360 206.18,-360 206.18,-360 212.18,-360 218.18,-366 218.18,-372 218.18,-372 218.18,-384 218.18,-384 218.18,-390 212.18,-396 206.18,-396"/>
<text text-anchor="middle" x="120.18" y="-374.12" font-family="sans" font-size="10.00">align_to_viruses_for_stats_no_secondary</text>
</g>
<!-- 5&#45;&gt;3 -->
<g id="edge15" class="edge">
<title>5&#45;&gt;3</title>
<path fill="none" stroke="grey" stroke-width="2" d="M118.41,-359.34C117.76,-352.75 116.99,-345.08 116.25,-337.67"/>
<polygon fill="grey" stroke="grey" stroke-width="2" points="119.75,-337.52 115.27,-327.91 112.78,-338.21 119.75,-337.52"/>
</g>
<!-- 6 -->
<g id="node7" class="node">
<title>6</title>
<path fill="none" stroke="#d8b456" stroke-width="2" d="M200.68,-468C200.68,-468 139.68,-468 139.68,-468 133.68,-468 127.68,-462 127.68,-456 127.68,-456 127.68,-444 127.68,-444 127.68,-438 133.68,-432 139.68,-432 139.68,-432 200.68,-432 200.68,-432 206.68,-432 212.68,-438 212.68,-444 212.68,-444 212.68,-456 212.68,-456 212.68,-462 206.68,-468 200.68,-468"/>
<text text-anchor="middle" x="170.18" y="-446.12" font-family="sans" font-size="10.00">non_host_reads</text>
</g>
<!-- 6&#45;&gt;5 -->
<g id="edge16" class="edge">
<title>6&#45;&gt;5</title>
<path fill="none" stroke="grey" stroke-width="2" d="M157.56,-431.34C152.39,-424.1 146.27,-415.53 140.5,-407.45"/>
<polygon fill="grey" stroke="grey" stroke-width="2" points="143.39,-405.47 134.73,-399.37 137.69,-409.54 143.39,-405.47"/>
</g>
<!-- 20 -->
<g id="node21" class="node">
<title>20</title>
<path fill="none" stroke="#5692d8" stroke-width="2" d="M384.18,-396C384.18,-396 248.18,-396 248.18,-396 242.18,-396 236.18,-390 236.18,-384 236.18,-384 236.18,-372 236.18,-372 236.18,-366 242.18,-360 248.18,-360 248.18,-360 384.18,-360 384.18,-360 390.18,-360 396.18,-366 396.18,-372 396.18,-372 396.18,-384 396.18,-384 396.18,-390 390.18,-396 384.18,-396"/>
<text text-anchor="middle" x="316.18" y="-374.12" font-family="sans" font-size="10.00">align_to_viruses_with_secondary</text>
</g>
<!-- 6&#45;&gt;20 -->
<g id="edge32" class="edge">
<title>6&#45;&gt;20</title>
<path fill="none" stroke="grey" stroke-width="2" d="M207.4,-431.15C225.52,-422.47 247.55,-411.91 267.03,-402.56"/>
<polygon fill="grey" stroke="grey" stroke-width="2" points="268.54,-405.72 276.05,-398.24 265.51,-399.41 268.54,-405.72"/>
</g>
<!-- 7 -->
<g id="node8" class="node">
<title>7</title>
<path fill="none" stroke="#56d0d8" stroke-width="2" d="M204.81,-540C204.81,-540 135.56,-540 135.56,-540 129.56,-540 123.56,-534 123.56,-528 123.56,-528 123.56,-516 123.56,-516 123.56,-510 129.56,-504 135.56,-504 135.56,-504 204.81,-504 204.81,-504 210.81,-504 216.81,-510 216.81,-516 216.81,-516 216.81,-528 216.81,-528 216.81,-534 210.81,-540 204.81,-540"/>
<text text-anchor="middle" x="170.18" y="-518.12" font-family="sans" font-size="10.00">remove_host_dna</text>
</g>
<!-- 7&#45;&gt;6 -->
<g id="edge17" class="edge">
<title>7&#45;&gt;6</title>
<path fill="none" stroke="grey" stroke-width="2" d="M170.18,-503.34C170.18,-496.75 170.18,-489.08 170.18,-481.67"/>
<polygon fill="grey" stroke="grey" stroke-width="2" points="173.68,-481.93 170.18,-471.93 166.68,-481.93 173.68,-481.93"/>
</g>
<!-- 18 -->
<g id="node19" class="node">
<title>18</title>
<path fill="none" stroke="#5682d8" stroke-width="2" d="M90.93,-468C90.93,-468 13.43,-468 13.43,-468 7.43,-468 1.43,-462 1.43,-456 1.43,-456 1.43,-444 1.43,-444 1.43,-438 7.43,-432 13.43,-432 13.43,-432 90.93,-432 90.93,-432 96.93,-432 102.93,-438 102.93,-444 102.93,-444 102.93,-456 102.93,-456 102.93,-462 96.93,-468 90.93,-468"/>
<text text-anchor="middle" x="52.18" y="-446.12" font-family="sans" font-size="10.00">host_removal_stats</text>
</g>
<!-- 7&#45;&gt;18 -->
<g id="edge30" class="edge">
<title>7&#45;&gt;18</title>
<path fill="none" stroke="grey" stroke-width="2" d="M140.1,-503.15C125.81,-494.68 108.52,-484.42 93.07,-475.25"/>
<polygon fill="grey" stroke="grey" stroke-width="2" points="95.2,-472.45 84.81,-470.36 91.63,-478.47 95.2,-472.45"/>
</g>
<!-- 8 -->
<g id="node9" class="node">
<title>8</title>
<path fill="none" stroke="#56c1d8" stroke-width="2" d="M257.31,-612C257.31,-612 185.06,-612 185.06,-612 179.06,-612 173.06,-606 173.06,-600 173.06,-600 173.06,-588 173.06,-588 173.06,-582 179.06,-576 185.06,-576 185.06,-576 257.31,-576 257.31,-576 263.31,-576 269.31,-582 269.31,-588 269.31,-588 269.31,-600 269.31,-600 269.31,-606 263.31,-612 257.31,-612"/>
<text text-anchor="middle" x="221.18" y="-590.12" font-family="sans" font-size="10.00">host_sam_to_bam</text>
</g>
<!-- 8&#45;&gt;7 -->
<g id="edge18" class="edge">
<title>8&#45;&gt;7</title>
<path fill="none" stroke="grey" stroke-width="2" d="M208.31,-575.34C202.98,-568.01 196.65,-559.34 190.71,-551.18"/>
<polygon fill="grey" stroke="grey" stroke-width="2" points="193.72,-549.37 185.01,-543.35 188.07,-553.49 193.72,-549.37"/>
</g>
<!-- 9&#45;&gt;8 -->
<g id="edge19" class="edge">
<title>9&#45;&gt;8</title>
<path fill="none" stroke="grey" stroke-width="2" d="M349.33,-647.15C327.38,-638.22 300.56,-627.31 277.14,-617.77"/>
<polygon fill="grey" stroke="grey" stroke-width="2" points="278.63,-614.6 268.05,-614.08 275.99,-621.09 278.63,-614.6"/>
</g>
<!-- 10 -->
<g id="node11" class="node">
<title>10</title>
<path fill="none" stroke="#d8d356" stroke-width="2" d="M698.93,-756C698.93,-756 657.43,-756 657.43,-756 651.43,-756 645.43,-750 645.43,-744 645.43,-744 645.43,-732 645.43,-732 645.43,-726 651.43,-720 657.43,-720 657.43,-720 698.93,-720 698.93,-720 704.93,-720 710.93,-726 710.93,-732 710.93,-732 710.93,-744 710.93,-744 710.93,-750 704.93,-756 698.93,-756"/>
<text text-anchor="middle" x="678.18" y="-734.12" font-family="sans" font-size="10.00">deduplicate</text>
</g>
<!-- 10&#45;&gt;9 -->
<g id="edge21" class="edge">
<title>10&#45;&gt;9</title>
<path fill="none" stroke="grey" stroke-width="2" d="M644.65,-728.76C598.93,-717.54 516.1,-697.19 458.03,-682.93"/>
<polygon fill="grey" stroke="grey" stroke-width="2" points="459.16,-679.6 448.61,-680.61 457.49,-686.4 459.16,-679.6"/>
</g>
<!-- 22 -->
<g id="node23" class="node">
<title>22</title>
<path fill="none" stroke="#d85656" stroke-width="2" d="M762.68,-180C762.68,-180 659.68,-180 659.68,-180 653.68,-180 647.68,-174 647.68,-168 647.68,-168 647.68,-156 647.68,-156 647.68,-150 653.68,-144 659.68,-144 659.68,-144 762.68,-144 762.68,-144 768.68,-144 774.68,-150 774.68,-156 774.68,-156 774.68,-168 774.68,-168 774.68,-174 768.68,-180 762.68,-180"/>
<text text-anchor="middle" x="711.18" y="-158.12" font-family="sans" font-size="10.00">post_dedup_read_lengths</text>
</g>
<!-- 10&#45;&gt;22 -->
<g id="edge34" class="edge">
<title>10&#45;&gt;22</title>
<path fill="none" stroke="grey" stroke-width="2" d="M681.7,-719.15C686.68,-692.32 695.18,-639.94 695.18,-595 695.18,-595 695.18,-595 695.18,-305 695.18,-266.41 701.09,-222.29 705.72,-193.61"/>
<polygon fill="grey" stroke="grey" stroke-width="2" points="709.16,-194.29 707.36,-183.85 702.25,-193.13 709.16,-194.29"/>
</g>
<!-- 11 -->
<g id="node12" class="node">
<title>11</title>
<path fill="none" stroke="#56d87b" stroke-width="2" d="M770.06,-1188C770.06,-1188 732.31,-1188 732.31,-1188 726.31,-1188 720.31,-1182 720.31,-1176 720.31,-1176 720.31,-1164 720.31,-1164 720.31,-1158 726.31,-1152 732.31,-1152 732.31,-1152 770.06,-1152 770.06,-1152 776.06,-1152 782.06,-1158 782.06,-1164 782.06,-1164 782.06,-1176 782.06,-1176 782.06,-1182 776.06,-1188 770.06,-1188"/>
<text text-anchor="middle" x="751.18" y="-1166.12" font-family="sans" font-size="10.00">trim_reads</text>
</g>
<!-- 11&#45;&gt;10 -->
<g id="edge23" class="edge">
<title>11&#45;&gt;10</title>
<path fill="none" stroke="grey" stroke-width="2" d="M747.04,-1151.18C741.18,-1124.39 731.18,-1072.06 731.18,-1027 731.18,-1027 731.18,-1027 731.18,-881 731.18,-840.55 727.57,-829.4 712.18,-792 708.71,-783.58 703.9,-775.02 698.99,-767.32"/>
<polygon fill="grey" stroke="grey" stroke-width="2" points="702.05,-765.59 693.55,-759.25 696.24,-769.5 702.05,-765.59"/>
</g>
<!-- 17 -->
<g id="node18" class="node">
<title>17</title>
<path fill="none" stroke="#d88556" stroke-width="2" d="M688.81,-1116C688.81,-1116 607.56,-1116 607.56,-1116 601.56,-1116 595.56,-1110 595.56,-1104 595.56,-1104 595.56,-1092 595.56,-1092 595.56,-1086 601.56,-1080 607.56,-1080 607.56,-1080 688.81,-1080 688.81,-1080 694.81,-1080 700.81,-1086 700.81,-1092 700.81,-1092 700.81,-1104 700.81,-1104 700.81,-1110 694.81,-1116 688.81,-1116"/>
<text text-anchor="middle" x="648.18" y="-1094.12" font-family="sans" font-size="10.00">bin_reads_by_length</text>
</g>
<!-- 11&#45;&gt;17 -->
<g id="edge29" class="edge">
<title>11&#45;&gt;17</title>
<path fill="none" stroke="grey" stroke-width="2" d="M724.92,-1151.15C712.82,-1142.93 698.24,-1133.02 685.05,-1124.06"/>
<polygon fill="grey" stroke="grey" stroke-width="2" points="687.13,-1121.24 676.89,-1118.51 683.2,-1127.03 687.13,-1121.24"/>
</g>
<!-- 21 -->
<g id="node22" class="node">
<title>21</title>
<path fill="none" stroke="#61d856" stroke-width="2" d="M618.06,-180C618.06,-180 520.31,-180 520.31,-180 514.31,-180 508.31,-174 508.31,-168 508.31,-168 508.31,-156 508.31,-156 508.31,-150 514.31,-144 520.31,-144 520.31,-144 618.06,-144 618.06,-144 624.06,-144 630.06,-150 630.06,-156 630.06,-156 630.06,-168 630.06,-168 630.06,-174 624.06,-180 618.06,-180"/>
<text text-anchor="middle" x="569.18" y="-158.12" font-family="sans" font-size="10.00">pre_dedup_read_lengths</text>
</g>
<!-- 11&#45;&gt;21 -->
<g id="edge33" class="edge">
<title>11&#45;&gt;21</title>
<path fill="none" stroke="grey" stroke-width="2" d="M719.32,-1167.36C682.33,-1163.73 621.84,-1152.25 586.18,-1116 557.19,-1086.53 559.18,-1068.34 559.18,-1027 559.18,-1027 559.18,-1027 559.18,-305 559.18,-266.56 562.87,-222.41 565.77,-193.68"/>
<polygon fill="grey" stroke="grey" stroke-width="2" points="569.23,-194.23 566.79,-183.91 562.27,-193.5 569.23,-194.23"/>
</g>
<!-- 26 -->
<g id="node27" class="node">
<title>26</title>
<path fill="none" stroke="#5663d8" stroke-width="2" d="M833.06,-972C833.06,-972 771.31,-972 771.31,-972 765.31,-972 759.31,-966 759.31,-960 759.31,-960 759.31,-948 759.31,-948 759.31,-942 765.31,-936 771.31,-936 771.31,-936 833.06,-936 833.06,-936 839.06,-936 845.06,-942 845.06,-948 845.06,-948 845.06,-960 845.06,-960 845.06,-966 839.06,-972 833.06,-972"/>
<text text-anchor="middle" x="802.18" y="-950.12" font-family="sans" font-size="10.00">hard_trim_count</text>
</g>
<!-- 11&#45;&gt;26 -->
<g id="edge38" class="edge">
<title>11&#45;&gt;26</title>
<path fill="none" stroke="grey" stroke-width="2" d="M755.44,-1151.12C764.16,-1114.54 784.12,-1030.77 794.92,-985.45"/>
<polygon fill="grey" stroke="grey" stroke-width="2" points="798.28,-986.46 797.19,-975.92 791.47,-984.84 798.28,-986.46"/>
</g>
<!-- 27 -->
<g id="node28" class="node">
<title>27</title>
<path fill="none" stroke="#56a2d8" stroke-width="2" d="M902.18,-900C902.18,-900 844.18,-900 844.18,-900 838.18,-900 832.18,-894 832.18,-888 832.18,-888 832.18,-876 832.18,-876 832.18,-870 838.18,-864 844.18,-864 844.18,-864 902.18,-864 902.18,-864 908.18,-864 914.18,-870 914.18,-876 914.18,-876 914.18,-888 914.18,-888 914.18,-894 908.18,-900 902.18,-900"/>
<text text-anchor="middle" x="873.18" y="-878.12" font-family="sans" font-size="10.00">chimeric_count</text>
</g>
<!-- 11&#45;&gt;27 -->
<g id="edge39" class="edge">
<title>11&#45;&gt;27</title>
<path fill="none" stroke="grey" stroke-width="2" d="M762.85,-1151.07C784.23,-1117.38 829.74,-1041.75 854.18,-972 860.82,-953.06 865.55,-931 868.63,-913.58"/>
<polygon fill="grey" stroke="grey" stroke-width="2" points="872.07,-914.18 870.25,-903.74 865.17,-913.04 872.07,-914.18"/>
</g>
<!-- 12 -->
<g id="node13" class="node">
<title>12</title>
<path fill="none" stroke="#56b1d8" stroke-width="2" d="M829.31,-1260C829.31,-1260 781.06,-1260 781.06,-1260 775.06,-1260 769.06,-1254 769.06,-1248 769.06,-1248 769.06,-1236 769.06,-1236 769.06,-1230 775.06,-1224 781.06,-1224 781.06,-1224 829.31,-1224 829.31,-1224 835.31,-1224 841.31,-1230 841.31,-1236 841.31,-1236 841.31,-1248 841.31,-1248 841.31,-1254 835.31,-1260 829.31,-1260"/>
<text text-anchor="middle" x="805.18" y="-1238.12" font-family="sans" font-size="10.00">concat_parts</text>
</g>
<!-- 12&#45;&gt;11 -->
<g id="edge24" class="edge">
<title>12&#45;&gt;11</title>
<path fill="none" stroke="grey" stroke-width="2" d="M791.55,-1223.34C785.91,-1216.01 779.21,-1207.34 772.92,-1199.18"/>
<polygon fill="grey" stroke="grey" stroke-width="2" points="775.72,-1197.08 766.84,-1191.3 770.18,-1201.35 775.72,-1197.08"/>
</g>
<!-- 25 -->
<g id="node26" class="node">
<title>25</title>
<path fill="none" stroke="#ced856" stroke-width="2" d="M977.56,-1044C977.56,-1044 912.81,-1044 912.81,-1044 906.81,-1044 900.81,-1038 900.81,-1032 900.81,-1032 900.81,-1020 900.81,-1020 900.81,-1014 906.81,-1008 912.81,-1008 912.81,-1008 977.56,-1008 977.56,-1008 983.56,-1008 989.56,-1014 989.56,-1020 989.56,-1020 989.56,-1032 989.56,-1032 989.56,-1038 983.56,-1044 977.56,-1044"/>
<text text-anchor="middle" x="945.18" y="-1022.12" font-family="sans" font-size="10.00">start_read_count</text>
</g>
<!-- 12&#45;&gt;25 -->
<g id="edge37" class="edge">
<title>12&#45;&gt;25</title>
<path fill="none" stroke="grey" stroke-width="2" d="M816.88,-1223.21C832.8,-1198.98 862.18,-1154.23 887.18,-1116 900.43,-1095.74 915.34,-1072.86 926.72,-1055.37"/>
<polygon fill="grey" stroke="grey" stroke-width="2" points="929.47,-1057.57 931.99,-1047.28 923.6,-1053.75 929.47,-1057.57"/>
</g>
<!-- 13 -->
<g id="node14" class="node">
<title>13</title>
<path fill="none" stroke="#56d8a9" stroke-width="2" d="M691.06,-828C691.06,-828 599.31,-828 599.31,-828 593.31,-828 587.31,-822 587.31,-816 587.31,-816 587.31,-804 587.31,-804 587.31,-798 593.31,-792 599.31,-792 599.31,-792 691.06,-792 691.06,-792 697.06,-792 703.06,-798 703.06,-804 703.06,-804 703.06,-816 703.06,-816 703.06,-822 697.06,-828 691.06,-828"/>
<text text-anchor="middle" x="645.18" y="-806.12" font-family="sans" font-size="10.00">merge_duplicates_lists</text>
</g>
<!-- 13&#45;&gt;10 -->
<g id="edge22" class="edge">
<title>13&#45;&gt;10</title>
<path fill="none" stroke="grey" stroke-width="2" d="M653.51,-791.34C656.77,-784.43 660.59,-776.31 664.25,-768.56"/>
<polygon fill="grey" stroke="grey" stroke-width="2" points="667.35,-770.18 668.45,-759.64 661.02,-767.19 667.35,-770.18"/>
</g>
<!-- 14 -->
<g id="node15" class="node">
<title>14</title>
<path fill="none" stroke="#d8a456" stroke-width="2" d="M674.81,-900C674.81,-900 617.56,-900 617.56,-900 611.56,-900 605.56,-894 605.56,-888 605.56,-888 605.56,-876 605.56,-876 605.56,-870 611.56,-864 617.56,-864 617.56,-864 674.81,-864 674.81,-864 680.81,-864 686.81,-870 686.81,-876 686.81,-876 686.81,-888 686.81,-888 686.81,-894 680.81,-900 674.81,-900"/>
<text text-anchor="middle" x="646.18" y="-878.12" font-family="sans" font-size="10.00">find_duplicates</text>
</g>
<!-- 14&#45;&gt;13 -->
<g id="edge25" class="edge">
<title>14&#45;&gt;13</title>
<path fill="none" stroke="grey" stroke-width="2" d="M645.93,-863.34C645.83,-856.75 645.72,-849.08 645.62,-841.67"/>
<polygon fill="grey" stroke="grey" stroke-width="2" points="649.12,-841.88 645.48,-831.93 642.12,-841.98 649.12,-841.88"/>
</g>
<!-- 15 -->
<g id="node16" class="node">
<title>15</title>
<path fill="none" stroke="#d87556" stroke-width="2" d="M687.18,-972C687.18,-972 605.18,-972 605.18,-972 599.18,-972 593.18,-966 593.18,-960 593.18,-960 593.18,-948 593.18,-948 593.18,-942 599.18,-936 605.18,-936 605.18,-936 687.18,-936 687.18,-936 693.18,-936 699.18,-942 699.18,-948 699.18,-948 699.18,-960 699.18,-960 699.18,-966 693.18,-972 687.18,-972"/>
<text text-anchor="middle" x="646.18" y="-950.12" font-family="sans" font-size="10.00">blat_clustered_reads</text>
</g>
<!-- 15&#45;&gt;14 -->
<g id="edge26" class="edge">
<title>15&#45;&gt;14</title>
<path fill="none" stroke="grey" stroke-width="2" d="M646.18,-935.34C646.18,-928.75 646.18,-921.08 646.18,-913.67"/>
<polygon fill="grey" stroke="grey" stroke-width="2" points="649.68,-913.93 646.18,-903.93 642.68,-913.93 649.68,-913.93"/>
</g>
<!-- 16 -->
<g id="node17" class="node">
<title>16</title>
<path fill="none" stroke="#bed856" stroke-width="2" d="M672.43,-1044C672.43,-1044 621.93,-1044 621.93,-1044 615.93,-1044 609.93,-1038 609.93,-1032 609.93,-1032 609.93,-1020 609.93,-1020 609.93,-1014 615.93,-1008 621.93,-1008 621.93,-1008 672.43,-1008 672.43,-1008 678.43,-1008 684.43,-1014 684.43,-1020 684.43,-1020 684.43,-1032 684.43,-1032 684.43,-1038 678.43,-1044 672.43,-1044"/>
<text text-anchor="middle" x="647.18" y="-1022.12" font-family="sans" font-size="10.00">cluster_reads</text>
</g>
<!-- 16&#45;&gt;15 -->
<g id="edge27" class="edge">
<title>16&#45;&gt;15</title>
<path fill="none" stroke="grey" stroke-width="2" d="M646.93,-1007.34C646.83,-1000.75 646.72,-993.08 646.62,-985.67"/>
<polygon fill="grey" stroke="grey" stroke-width="2" points="650.12,-985.88 646.48,-975.93 643.12,-985.98 650.12,-985.88"/>
</g>
<!-- 17&#45;&gt;16 -->
<g id="edge28" class="edge">
<title>17&#45;&gt;16</title>
<path fill="none" stroke="grey" stroke-width="2" d="M647.93,-1079.34C647.83,-1072.75 647.72,-1065.08 647.62,-1057.67"/>
<polygon fill="grey" stroke="grey" stroke-width="2" points="651.12,-1057.88 647.48,-1047.93 644.12,-1057.98 651.12,-1057.88"/>
</g>
<!-- 18&#45;&gt;1 -->
<g id="edge13" class="edge">
<title>18&#45;&gt;1</title>
<path fill="none" stroke="grey" stroke-width="2" d="M34.47,-431.05C26.29,-421.48 17.46,-409.03 13.18,-396 -1.43,-351.48 -11.34,-280.49 27.18,-216 33.91,-204.73 44.08,-195.34 54.91,-187.77"/>
<polygon fill="grey" stroke="grey" stroke-width="2" points="56.75,-190.74 63.29,-182.41 52.98,-184.84 56.75,-190.74"/>
</g>
<!-- 19 -->
<g id="node20" class="node">
<title>19</title>
<path fill="none" stroke="#56d86b" stroke-width="2" d="M339.68,-324C339.68,-324 254.68,-324 254.68,-324 248.68,-324 242.68,-318 242.68,-312 242.68,-312 242.68,-300 242.68,-300 242.68,-294 248.68,-288 254.68,-288 254.68,-288 339.68,-288 339.68,-288 345.68,-288 351.68,-294 351.68,-300 351.68,-300 351.68,-312 351.68,-312 351.68,-318 345.68,-324 339.68,-324"/>
<text text-anchor="middle" x="297.18" y="-302.12" font-family="sans" font-size="10.00">viruses_sam_to_bam</text>
</g>
<!-- 19&#45;&gt;0 -->
<g id="edge8" class="edge">
<title>19&#45;&gt;0</title>
<path fill="none" stroke="grey" stroke-width="2" d="M266.11,-287.1C253.51,-278.2 240.08,-266.27 232.18,-252 193.41,-181.95 173.8,-133.4 225.18,-72 252.2,-39.71 374.88,-26.35 439.73,-21.47"/>
<polygon fill="grey" stroke="grey" stroke-width="2" points="439.88,-24.97 449.61,-20.77 439.39,-17.98 439.88,-24.97"/>
</g>
<!-- 24 -->
<g id="node25" class="node">
<title>24</title>
<path fill="none" stroke="#80d856" stroke-width="2" d="M463.18,-252C463.18,-252 399.18,-252 399.18,-252 393.18,-252 387.18,-246 387.18,-240 387.18,-240 387.18,-228 387.18,-228 387.18,-222 393.18,-216 399.18,-216 399.18,-216 463.18,-216 463.18,-216 469.18,-216 475.18,-222 475.18,-228 475.18,-228 475.18,-240 475.18,-240 475.18,-246 469.18,-252 463.18,-252"/>
<text text-anchor="middle" x="431.18" y="-230.12" font-family="sans" font-size="10.00">reads_per_strain</text>
</g>
<!-- 19&#45;&gt;24 -->
<g id="edge36" class="edge">
<title>19&#45;&gt;24</title>
<path fill="none" stroke="grey" stroke-width="2" d="M331.34,-287.15C347.88,-278.52 367.96,-268.02 385.77,-258.72"/>
<polygon fill="grey" stroke="grey" stroke-width="2" points="387.16,-261.95 394.4,-254.21 383.91,-255.74 387.16,-261.95"/>
</g>
<!-- 29 -->
<g id="node30" class="node">
<title>29</title>
<path fill="none" stroke="#56d89a" stroke-width="2" d="M283.18,-252C283.18,-252 253.18,-252 253.18,-252 247.18,-252 241.18,-246 241.18,-240 241.18,-240 241.18,-228 241.18,-228 241.18,-222 247.18,-216 253.18,-216 253.18,-216 283.18,-216 283.18,-216 289.18,-216 295.18,-222 295.18,-228 295.18,-228 295.18,-240 295.18,-240 295.18,-246 289.18,-252 283.18,-252"/>
<text text-anchor="middle" x="268.18" y="-230.12" font-family="sans" font-size="10.00">mpileup</text>
</g>
<!-- 19&#45;&gt;29 -->
<g id="edge42" class="edge">
<title>19&#45;&gt;29</title>
<path fill="none" stroke="grey" stroke-width="2" d="M289.86,-287.34C287.03,-280.51 283.72,-272.5 280.54,-264.83"/>
<polygon fill="grey" stroke="grey" stroke-width="2" points="283.82,-263.6 276.76,-255.7 277.35,-266.28 283.82,-263.6"/>
</g>
<!-- 20&#45;&gt;19 -->
<g id="edge31" class="edge">
<title>20&#45;&gt;19</title>
<path fill="none" stroke="grey" stroke-width="2" d="M311.39,-359.34C309.58,-352.67 307.46,-344.89 305.43,-337.39"/>
<polygon fill="grey" stroke="grey" stroke-width="2" points="308.83,-336.56 302.83,-327.82 302.07,-338.39 308.83,-336.56"/>
</g>
<!-- 21&#45;&gt;0 -->
<g id="edge5" class="edge">
<title>21&#45;&gt;0</title>
<path fill="none" stroke="grey" stroke-width="2" d="M564.59,-143.23C559.22,-124.48 549.12,-94.57 534.18,-72 527.93,-62.55 519.76,-53.45 511.67,-45.54"/>
<polygon fill="grey" stroke="grey" stroke-width="2" points="514.26,-43.17 504.56,-38.92 509.49,-48.29 514.26,-43.17"/>
</g>
<!-- 32 -->
<g id="node33" class="node">
<title>32</title>
<path fill="none" stroke="#56d85b" stroke-width="2" d="M512.93,-108C512.93,-108 447.43,-108 447.43,-108 441.43,-108 435.43,-102 435.43,-96 435.43,-96 435.43,-84 435.43,-84 435.43,-78 441.43,-72 447.43,-72 447.43,-72 512.93,-72 512.93,-72 518.93,-72 524.93,-78 524.93,-84 524.93,-84 524.93,-96 524.93,-96 524.93,-102 518.93,-108 512.93,-108"/>
<text text-anchor="middle" x="480.18" y="-86.12" font-family="sans" font-size="10.00">add_sample_info</text>
</g>
<!-- 21&#45;&gt;32 -->
<g id="edge47" class="edge">
<title>21&#45;&gt;32</title>
<path fill="none" stroke="grey" stroke-width="2" d="M546.72,-143.34C536.47,-135.27 524.13,-125.57 512.88,-116.72"/>
<polygon fill="grey" stroke="grey" stroke-width="2" points="515.34,-114.2 505.32,-110.77 511.02,-119.71 515.34,-114.2"/>
</g>
<!-- 22&#45;&gt;0 -->
<g id="edge3" class="edge">
<title>22&#45;&gt;0</title>
<path fill="none" stroke="grey" stroke-width="2" d="M681.92,-143.02C640.63,-117.63 565.15,-71.23 519.14,-42.95"/>
<polygon fill="grey" stroke="grey" stroke-width="2" points="521.05,-40.01 510.7,-37.76 517.38,-45.98 521.05,-40.01"/>
</g>
<!-- 22&#45;&gt;32 -->
<g id="edge46" class="edge">
<title>22&#45;&gt;32</title>
<path fill="none" stroke="grey" stroke-width="2" d="M651.99,-143.06C616.99,-132.46 572.85,-119.08 538.08,-108.54"/>
<polygon fill="grey" stroke="grey" stroke-width="2" points="539.21,-105.23 528.62,-105.68 537.18,-111.93 539.21,-105.23"/>
</g>
<!-- 23 -->
<g id="node24" class="node">
<title>23</title>
<path fill="none" stroke="#56d8c9" stroke-width="2" d="M440.18,-180C440.18,-180 352.18,-180 352.18,-180 346.18,-180 340.18,-174 340.18,-168 340.18,-168 340.18,-156 340.18,-156 340.18,-150 346.18,-144 352.18,-144 352.18,-144 440.18,-144 440.18,-144 446.18,-144 452.18,-150 452.18,-156 452.18,-156 452.18,-168 452.18,-168 452.18,-174 446.18,-180 440.18,-180"/>
<text text-anchor="middle" x="396.18" y="-158.12" font-family="sans" font-size="10.00">filter_reads_per_strain</text>
</g>
<!-- 23&#45;&gt;0 -->
<g id="edge2" class="edge">
<title>23&#45;&gt;0</title>
<path fill="none" stroke="grey" stroke-width="2" d="M399.59,-143.21C403.76,-124.44 412.06,-94.52 426.18,-72 432.15,-62.48 440.16,-53.41 448.17,-45.54"/>
<polygon fill="grey" stroke="grey" stroke-width="2" points="450.3,-48.34 455.25,-38.97 445.54,-43.21 450.3,-48.34"/>
</g>
<!-- 23&#45;&gt;32 -->
<g id="edge44" class="edge">
<title>23&#45;&gt;32</title>
<path fill="none" stroke="grey" stroke-width="2" d="M417.38,-143.34C426.95,-135.36 438.46,-125.77 448.99,-116.99"/>
<polygon fill="grey" stroke="grey" stroke-width="2" points="450.93,-119.93 456.37,-110.84 446.45,-114.55 450.93,-119.93"/>
</g>
<!-- 24&#45;&gt;23 -->
<g id="edge35" class="edge">
<title>24&#45;&gt;23</title>
<path fill="none" stroke="grey" stroke-width="2" d="M422.35,-215.34C418.85,-208.34 414.74,-200.12 410.82,-192.28"/>
<polygon fill="grey" stroke="grey" stroke-width="2" points="414.09,-190.99 406.48,-183.61 407.83,-194.12 414.09,-190.99"/>
</g>
<!-- 24&#45;&gt;32 -->
<g id="edge45" class="edge">
<title>24&#45;&gt;32</title>
<path fill="none" stroke="grey" stroke-width="2" d="M443.17,-215.04C449.34,-205.08 456.53,-192.26 461.18,-180 468.3,-161.23 473.03,-139.18 475.99,-121.71"/>
<polygon fill="grey" stroke="grey" stroke-width="2" points="479.45,-122.26 477.53,-111.84 472.54,-121.18 479.45,-122.26"/>
</g>
<!-- 25&#45;&gt;0 -->
<g id="edge9" class="edge">
<title>25&#45;&gt;0</title>
<path fill="none" stroke="grey" stroke-width="2" d="M944.77,-1007.07C944.18,-980.13 943.18,-927.63 943.18,-883 943.18,-883 943.18,-883 943.18,-161 943.18,-102.82 899.68,-97.07 847.18,-72 790.02,-44.7 603.86,-28.05 520.82,-21.81"/>
<polygon fill="grey" stroke="grey" stroke-width="2" points="521.19,-18.33 510.97,-21.09 520.68,-25.31 521.19,-18.33"/>
</g>
<!-- 26&#45;&gt;0 -->
<g id="edge11" class="edge">
<title>26&#45;&gt;0</title>
<path fill="none" stroke="grey" stroke-width="2" d="M802.39,-935.07C802.68,-908.13 803.18,-855.62 803.18,-811 803.18,-811 803.18,-811 803.18,-161 803.18,-39.04 607.81,-20.89 520.96,-18.85"/>
<polygon fill="grey" stroke="grey" stroke-width="2" points="521.08,-15.35 511.03,-18.7 520.97,-22.35 521.08,-15.35"/>
</g>
<!-- 27&#45;&gt;0 -->
<g id="edge10" class="edge">
<title>27&#45;&gt;0</title>
<path fill="none" stroke="grey" stroke-width="2" d="M869.86,-863.14C865.18,-836.3 857.18,-783.9 857.18,-739 857.18,-739 857.18,-739 857.18,-161 857.18,-117.63 851.65,-98.32 817.18,-72 771.35,-37 600.24,-24.58 520.97,-20.64"/>
<polygon fill="grey" stroke="grey" stroke-width="2" points="521.35,-17.15 511.2,-20.18 521.03,-24.15 521.35,-17.15"/>
</g>
<!-- 28 -->
<g id="node29" class="node">
<title>28</title>
<path fill="none" stroke="#9fd856" stroke-width="2" d="M310.31,-180C310.31,-180 244.06,-180 244.06,-180 238.06,-180 232.06,-174 232.06,-168 232.06,-168 232.06,-156 232.06,-156 232.06,-150 238.06,-144 244.06,-144 244.06,-144 310.31,-144 310.31,-144 316.31,-144 322.31,-150 322.31,-156 322.31,-156 322.31,-168 322.31,-168 322.31,-174 316.31,-180 310.31,-180"/>
<text text-anchor="middle" x="277.18" y="-158.12" font-family="sans" font-size="10.00">find_viral_targets</text>
</g>
<!-- 28&#45;&gt;0 -->
<g id="edge1" class="edge">
<title>28&#45;&gt;0</title>
<path fill="none" stroke="grey" stroke-width="2" d="M302.89,-143.02C338.66,-118 403.6,-72.57 444.17,-44.19"/>
<polygon fill="grey" stroke="grey" stroke-width="2" points="446.01,-47.17 452.2,-38.57 442,-41.44 446.01,-47.17"/>
</g>
<!-- 31 -->
<g id="node32" class="node">
<title>31</title>
<path fill="none" stroke="#d8c356" stroke-width="2" d="M320.06,-108C320.06,-108 246.31,-108 246.31,-108 240.31,-108 234.31,-102 234.31,-96 234.31,-96 234.31,-84 234.31,-84 234.31,-78 240.31,-72 246.31,-72 246.31,-72 320.06,-72 320.06,-72 326.06,-72 332.06,-78 332.06,-84 332.06,-84 332.06,-96 332.06,-96 332.06,-102 326.06,-108 320.06,-108"/>
<text text-anchor="middle" x="283.18" y="-86.12" font-family="sans" font-size="10.00">get_viral_genomes</text>
</g>
<!-- 28&#45;&gt;31 -->
<g id="edge43" class="edge">
<title>28&#45;&gt;31</title>
<path fill="none" stroke="grey" stroke-width="2" d="M278.69,-143.34C279.26,-136.75 279.92,-129.08 280.55,-121.67"/>
<polygon fill="grey" stroke="grey" stroke-width="2" points="284.02,-122.18 281.39,-111.92 277.05,-121.58 284.02,-122.18"/>
</g>
<!-- 28&#45;&gt;32 -->
<g id="edge48" class="edge">
<title>28&#45;&gt;32</title>
<path fill="none" stroke="grey" stroke-width="2" d="M323.24,-145.12C352.68,-134.97 391.08,-121.72 422.53,-110.88"/>
<polygon fill="grey" stroke="grey" stroke-width="2" points="423.47,-114.26 431.79,-107.69 421.19,-107.64 423.47,-114.26"/>
</g>
<!-- 29&#45;&gt;28 -->
<g id="edge41" class="edge">
<title>29&#45;&gt;28</title>
<path fill="none" stroke="grey" stroke-width="2" d="M270.45,-215.34C271.3,-208.75 272.28,-201.08 273.24,-193.67"/>
<polygon fill="grey" stroke="grey" stroke-width="2" points="276.69,-194.27 274.49,-183.9 269.75,-193.38 276.69,-194.27"/>
</g>
<!-- 30 -->
<g id="node31" class="node">
<title>30</title>
<path fill="none" stroke="#8fd856" stroke-width="2" d="M356.68,-252C356.68,-252 325.68,-252 325.68,-252 319.68,-252 313.68,-246 313.68,-240 313.68,-240 313.68,-228 313.68,-228 313.68,-222 319.68,-216 325.68,-216 325.68,-216 356.68,-216 356.68,-216 362.68,-216 368.68,-222 368.68,-228 368.68,-228 368.68,-240 368.68,-240 368.68,-246 362.68,-252 356.68,-252"/>
<text text-anchor="middle" x="341.18" y="-230.12" font-family="sans" font-size="10.00">viral_bed</text>
</g>
<!-- 30&#45;&gt;28 -->
<g id="edge40" class="edge">
<title>30&#45;&gt;28</title>
<path fill="none" stroke="grey" stroke-width="2" d="M325.03,-215.34C318.11,-207.77 309.87,-198.75 302.19,-190.35"/>
<polygon fill="grey" stroke="grey" stroke-width="2" points="304.92,-188.15 295.59,-183.14 299.75,-192.88 304.92,-188.15"/>
</g>
<!-- 31&#45;&gt;0 -->
<g id="edge6" class="edge">
<title>31&#45;&gt;0</title>
<path fill="none" stroke="grey" stroke-width="2" d="M332.89,-71.34C366.15,-59.52 409.34,-44.17 440.34,-33.16"/>
<polygon fill="grey" stroke="grey" stroke-width="2" points="441.3,-36.53 449.55,-29.89 438.95,-29.94 441.3,-36.53"/>
</g>
<!-- 32&#45;&gt;0 -->
<g id="edge7" class="edge">
<title>32&#45;&gt;0</title>
<path fill="none" stroke="grey" stroke-width="2" d="M480.18,-71.34C480.18,-64.75 480.18,-57.08 480.18,-49.67"/>
<polygon fill="grey" stroke="grey" stroke-width="2" points="483.68,-49.93 480.18,-39.93 476.68,-49.93 483.68,-49.93"/>
</g>
</g>
</svg>
